<svg xmlns="http://www.w3.org/2000/svg" width="149" height="37" viewBox="0 0 149 37" fill="none"><path d="M31.6439 7.36723L19.9641 0.688235C18.359 -0.229412 16.3807 -0.229412 14.7757 0.688235L3.0925 7.36723C1.48746 8.28487 0.5 9.98235 0.5 11.8176V25.179C0.5 27.0143 1.48746 28.7118 3.0925 29.6294L14.7723 36.3118C16.3773 37.2294 18.3556 37.2294 19.9607 36.3118L31.6405 29.6294C33.2455 28.7118 34.233 27.0143 34.233 25.179V11.8176C34.233 9.98235 33.2455 8.28487 31.6405 7.36723H31.6439ZM25.0812 15.263L22.3666 16.9101C21.0873 17.6899 20.5579 18.016 20.0048 18.6378C19.4619 19.2529 19.0479 19.9756 18.773 20.7992C18.6441 21.179 18.5898 21.5824 18.5898 21.9857L18.583 26.2849C18.583 26.5773 18.3421 26.816 18.0469 26.816H16.6929C16.3977 26.816 16.1568 26.5773 16.1568 26.2849L16.15 21.9857C16.15 21.5824 16.0923 21.179 15.9668 20.7992C15.6919 19.9756 15.2779 19.2529 14.735 18.6378C14.1785 18.016 13.6491 17.6899 12.3698 16.9101L9.65857 15.263C9.40407 15.1084 9.32603 14.7824 9.48212 14.5303L10.1879 13.3874C10.344 13.1387 10.6766 13.058 10.9277 13.2126L14.5178 15.3975C15.3627 15.9118 16.3366 16.1874 17.3275 16.1874H17.4123C18.4032 16.1874 19.377 15.9118 20.222 15.3975L23.8121 13.2126C24.0632 13.058 24.3924 13.1387 24.5485 13.3874L25.2577 14.5303C25.4104 14.7824 25.3323 15.1084 25.0812 15.263Z" fill="white"></path><path d="M53.7991 13.5225H45.4006C45.2988 13.5225 45.2344 13.5897 45.2344 13.6872V15.5225C45.2344 15.6233 45.3022 15.6872 45.4006 15.6872H48.2714C48.3393 15.6872 48.3698 15.7208 48.3698 15.788V24.6048C48.3698 24.7057 48.4377 24.7695 48.5361 24.7695H50.6569C50.7553 24.7695 50.8232 24.7023 50.8232 24.6048V15.788C50.8232 15.7208 50.8571 15.6872 50.9216 15.6872H53.7923C53.8907 15.6872 53.9586 15.6199 53.9586 15.5225V13.6872C53.9586 13.5863 53.8907 13.5225 53.7923 13.5225H53.7991Z" fill="white"></path><path d="M63.7042 13.5223H56.4255C56.3237 13.5223 56.2593 13.5896 56.2593 13.6871V24.6047C56.2593 24.7055 56.3271 24.7694 56.4255 24.7694H63.7042C63.8026 24.7694 63.8705 24.7022 63.8705 24.6047V22.8333C63.8705 22.7324 63.8026 22.6686 63.7042 22.6686H58.8111C58.7432 22.6686 58.7092 22.635 58.7092 22.5677V20.235C58.7092 20.1677 58.7432 20.1341 58.8111 20.1341H62.8864C62.9882 20.1341 63.0527 20.0669 63.0527 19.9694V18.2148C63.0527 18.1139 62.9848 18.0501 62.8864 18.0501H58.8111C58.7432 18.0501 58.7092 18.0165 58.7092 17.9492V15.7173C58.7092 15.6501 58.7432 15.6165 58.8111 15.6165H63.7042C63.8026 15.6165 63.8705 15.5492 63.8705 15.4518V13.6803C63.8705 13.5795 63.8026 13.5156 63.7042 13.5156V13.5223Z" fill="white"></path><path d="M72.2181 13.6872C72.1842 13.5863 72.1197 13.5225 72.001 13.5225H69.8971C69.7783 13.5225 69.7139 13.5897 69.6799 13.6872L65.7708 24.6048C65.7369 24.7057 65.7708 24.7695 65.8862 24.7695H68.0749C68.1903 24.7695 68.2581 24.7191 68.2921 24.6048L68.9266 22.6351H72.9002L73.5517 24.6048C73.5856 24.7191 73.6501 24.7695 73.7689 24.7695H75.9406C76.056 24.7695 76.0899 24.7023 76.056 24.6048L72.2147 13.6872H72.2181ZM69.6121 20.5678L70.8981 16.6317H70.949L72.2351 20.5678H69.6121Z" fill="white"></path><path d="M88.5467 13.5225H86.5922C86.4598 13.5225 86.375 13.5729 86.3241 13.6872L83.5009 20.104H83.433L80.5622 13.6872C80.5113 13.5729 80.4299 13.5225 80.2942 13.5225H78.3057C78.2073 13.5225 78.1394 13.5897 78.1394 13.6872V24.6048C78.1394 24.7057 78.2073 24.7695 78.3057 24.7695H80.1924C80.2942 24.7695 80.3586 24.7023 80.3586 24.6048V18.2687H80.4265L82.5304 23.0149C82.5982 23.1628 82.6966 23.23 82.8493 23.23H83.9997C84.149 23.23 84.2508 23.1628 84.3186 23.0149L86.4225 18.2687H86.4904V24.6048C86.4904 24.7057 86.5582 24.7695 86.6566 24.7695H88.5433C88.6417 24.7695 88.7096 24.7023 88.7096 24.6048V13.6872C88.7096 13.5863 88.6417 13.5225 88.5433 13.5225H88.5467Z" fill="white"></path><path d="M104.875 13.5225H102.738C102.622 13.5225 102.554 13.5729 102.537 13.6872L100.966 20.7494H100.932L98.9304 13.6872C98.8965 13.5863 98.8286 13.5225 98.7302 13.5225H97.2778C97.1591 13.5225 97.0946 13.5897 97.0607 13.6872L95.1231 20.7494H95.0892L93.4536 13.6872C93.4366 13.5863 93.3687 13.5225 93.2534 13.5225H91.0986C90.9832 13.5225 90.9493 13.5897 90.9663 13.6872L93.9049 24.6048C93.9388 24.7057 94.0067 24.7695 94.1051 24.7695H95.7746C95.89 24.7695 95.9578 24.7023 95.9918 24.6048L97.9803 17.6065H98.0142L99.9857 24.6048C100.02 24.7057 100.084 24.7695 100.203 24.7695H101.872C101.988 24.7695 102.073 24.7023 102.09 24.6048L105.011 13.6872C105.028 13.5863 104.994 13.5225 104.879 13.5225H104.875Z" fill="white"></path><path d="M111.092 13.3408C109.103 13.3408 107.536 14.2517 106.952 16.0702C106.701 16.8467 106.636 17.4753 106.636 19.1459C106.636 20.8165 106.704 21.445 106.952 22.2215C107.536 24.04 109.107 24.9509 111.092 24.9509C113.077 24.9509 114.648 24.04 115.232 22.2215C115.483 21.445 115.551 20.8165 115.551 19.1459C115.551 17.4753 115.483 16.8467 115.232 16.0702C114.648 14.2517 113.077 13.3408 111.092 13.3408ZM112.88 21.5627C112.629 22.3391 112.028 22.803 111.092 22.803C110.155 22.803 109.555 22.3391 109.304 21.5627C109.171 21.166 109.12 20.6215 109.12 19.1492C109.12 17.677 109.171 17.1324 109.304 16.7358C109.555 15.9593 110.155 15.4954 111.092 15.4954C112.028 15.4954 112.629 15.9593 112.88 16.7358C113.013 17.1324 113.063 17.677 113.063 19.1492C113.063 20.6215 113.013 21.166 112.88 21.5627Z" fill="white"></path><path d="M124.621 20.1376C125.873 19.593 126.64 18.4502 126.64 17.0115C126.64 14.9611 125.103 13.5225 122.782 13.5225H118.255C118.157 13.5225 118.089 13.5897 118.089 13.6872V24.6048C118.089 24.7057 118.157 24.7695 118.255 24.7695H120.376C120.474 24.7695 120.542 24.7023 120.542 24.6048V20.5846C120.542 20.5174 120.576 20.4838 120.641 20.4838H122.161L124.115 24.6015C124.166 24.7157 124.217 24.7662 124.367 24.7662H126.738C126.857 24.7662 126.905 24.6653 126.857 24.5678L124.621 20.1342V20.1376ZM122.649 18.4166H120.647C120.58 18.4166 120.549 18.383 120.549 18.3157V15.7174C120.549 15.6502 120.583 15.6166 120.647 15.6166H122.649C123.586 15.6166 124.187 16.1611 124.187 17.0048C124.187 17.8485 123.586 18.4099 122.649 18.4099V18.4166Z" fill="white"></path><path d="M134.774 18.0065L138.215 13.7376C138.3 13.6367 138.249 13.5225 138.147 13.5225H135.724C135.592 13.5225 135.524 13.5561 135.439 13.6704L131.666 18.551V13.6872C131.666 13.5863 131.598 13.5225 131.5 13.5225H129.379C129.281 13.5225 129.213 13.5897 129.213 13.6872V24.6048C129.213 24.7057 129.281 24.7695 129.379 24.7695H131.5C131.598 24.7695 131.666 24.7023 131.666 24.6048V21.7443L133.152 19.8922L135.724 24.6216C135.792 24.7359 135.84 24.7695 135.976 24.7695H138.429C138.544 24.7695 138.595 24.6855 138.527 24.5712L134.771 18.0031L134.774 18.0065Z" fill="white"></path><path d="M144.93 18.0064L144.33 17.9223C143.027 17.7408 142.558 17.3274 142.558 16.682C142.558 15.9694 143.077 15.4585 144.078 15.4585C145.015 15.4585 145.85 15.7576 146.715 16.319C146.8 16.3694 146.881 16.3526 146.949 16.2686L147.967 14.7627C148.052 14.6484 148.035 14.5812 147.933 14.5139C146.98 13.7845 145.578 13.3408 144.075 13.3408C141.622 13.3408 140.051 14.7122 140.051 16.7828C140.051 18.8534 141.337 19.8417 143.641 20.1576L144.241 20.2417C145.595 20.4232 145.996 20.8366 145.996 21.4988C145.996 22.2921 145.327 22.84 144.143 22.84C142.959 22.84 141.924 22.2786 141.17 21.6837C141.086 21.6165 140.987 21.6165 140.919 21.7005L139.65 23.1391C139.565 23.24 139.599 23.3543 139.667 23.4215C140.553 24.2652 142.273 24.961 144.041 24.961C146.98 24.961 148.5 23.4551 148.5 21.4215C148.5 19.3879 147.265 18.3291 144.927 18.0131L144.93 18.0064Z" fill="white"></path></svg>