<?xml version="1.0" encoding="UTF-8"?><svg id="Layer_1" xmlns="http://www.w3.org/2000/svg" viewBox="0 0 937.92586 684.94125"><defs><style>.cls-1{fill:#fff;}.cls-2{fill:#12649f;}</style></defs><path class="cls-2" d="M547.85396,90.28227l-88.95339,.28651-31.17355,134.43008h-44.90931l31.17919-134.43008h-89.81291l10.01103-44.33061h223.66436l-10.00541,44.0441Z"/><path class="cls-1" d="M448.07392,249.45332l30.89268-134.14358h134.13796l-10.29197,44.61717h-89.52641l-30.88707,134.14352h-134.14357l10.2976-44.61711h89.52078Z"/><g><path class="cls-1" d="M200.35141,606.93129c4.5503,15.44397,17.39209,22.59646,32.99675,22.59646,6.66476,0,14.79272-1.4632,19.99427-5.52859,4.22609-3.25062,6.82546-8.93991,6.82546-14.30216,0-11.21788-9.26413-15.76819-19.01881-18.20686l-18.52825-4.5503c-7.47953-1.78742-14.30498-3.57766-20.15779-8.93991-5.84999-5.20156-9.10061-12.84178-9.10061-20.64553,0-21.45466,18.52825-30.7216,37.87128-30.7216,18.69459,0,33.64801,9.26695,39.66433,27.31028l-12.68108,3.41132c-2.43585-12.19053-15.44115-19.66724-27.30746-19.66724-10.56663,0-23.89333,5.52577-23.89333,17.7163,0,12.51757,9.75186,15.28045,20.15497,17.71912l16.74365,4.06257c7.31319,1.62672,14.6292,3.73835,20.31849,8.61569,6.98897,5.68929,10.40311,13.32952,10.40311,22.10591,0,10.0789-4.38961,19.18232-12.51757,25.35935-8.12796,6.17702-19.01881,8.12796-29.09488,8.12796-22.75716,0-37.7134-10.0789-45.1901-31.69707l12.51757-2.76571Z"/><path class="cls-1" d="M288.20538,639.76735v-111.50783h37.38636c9.59116,0,19.1795,1.13617,26.81973,7.47671,7.31601,6.17702,11.37858,16.58014,11.37858,26.00778,0,8.61569-3.57484,17.5556-9.75186,23.56911-7.47671,7.31601-16.74365,9.10343-26.81973,9.10343h-25.03513v45.3508h-13.97795Zm37.54988-56.8929c6.66194,0,12.51475-.64843,17.7163-5.68929,4.06539-4.06257,6.17702-9.75186,6.17702-15.44115,0-6.66476-2.43867-13.32952-7.80092-17.5556-4.71382-3.73835-9.43046-4.22609-15.11693-4.22609h-24.5474v42.91213h23.57193Z"/><path class="cls-1" d="M377.76523,584.82538c0-27.7952,13.65373-58.19258,45.83854-58.19258,31.37003,0,45.83854,28.60997,45.83854,56.08095,0,27.30746-13.98077,58.68032-45.67784,58.68032-32.02129,0-45.99923-28.60997-45.99923-56.56868Zm77.04787-1.29968c0-9.91538-1.62672-21.45748-6.66476-30.39739-5.04086-8.77639-13.65373-14.95342-24.05684-14.95342-24.87161,0-31.69707,26.81973-31.69707,46.814,0,19.1795,7.80092,45.02659,31.37003,45.02659,23.89615,0,31.04864-27.31028,31.04864-46.48979Z"/><path class="cls-1" d="M548.73463,639.76735l-20.64553-48.27721h-30.8823v48.27721h-13.98077v-111.50783h41.77597c9.10343,0,17.87982,1.13617,25.35653,6.82546,7.47671,5.68929,11.86631,14.95624,11.86631,24.38388,0,13.166-7.80092,25.03231-20.80622,28.60715l21.94521,51.69134h-14.6292Zm-25.35935-59.65579c7.47671,0,13.65373-.48773,19.18232-6.17702,3.89905-3.90187,5.68929-9.26413,5.68929-14.6292,0-6.50124-2.43867-11.86631-7.80374-15.44115-4.87734-3.41414-9.59116-3.57766-15.44115-3.57766h-27.7952v39.82503h26.16848Z"/><path class="cls-1" d="M623.27535,639.76735h-13.97795v-99.3173h-31.69707v-12.19053h77.37209v12.19053h-31.69707v99.3173Z"/><path class="cls-1" d="M675.84043,606.93129c4.5503,15.44397,17.39209,22.59646,32.99675,22.59646,6.66476,0,14.79272-1.4632,19.99427-5.52859,4.22609-3.25062,6.82546-8.93991,6.82546-14.30216,0-11.21788-9.26413-15.76819-19.01881-18.20686l-18.52825-4.5503c-7.47953-1.78742-14.30498-3.57766-20.15779-8.93991-5.84999-5.20156-9.10061-12.84178-9.10061-20.64553,0-21.45466,18.52825-30.7216,37.87128-30.7216,18.69459,0,33.64801,9.26695,39.66433,27.31028l-12.68108,3.41132c-2.43585-12.19053-15.44115-19.66724-27.30746-19.66724-10.56663,0-23.89333,5.52577-23.89333,17.7163,0,12.51757,9.75186,15.28045,20.15497,17.71912l16.74365,4.06257c7.31319,1.62672,14.6292,3.73835,20.31849,8.61569,6.98897,5.68929,10.40311,13.32952,10.40311,22.10591,0,10.0789-4.38961,19.18232-12.51757,25.35935-8.12796,6.17702-19.01881,8.12796-29.09488,8.12796-22.75716,0-37.7134-10.0789-45.1901-31.69707l12.51757-2.76571Z"/></g><g><path class="cls-2" d="M110.18094,395.84876h-27.95872v89.40192h-26.00778v-89.40192H27.93151v-22.10591H110.18094v22.10591Z"/><path class="cls-2" d="M149.67048,395.36103v22.59364h42.26088v20.96974h-42.26088v24.7081h53.63946v21.61817H123.6627v-111.50783h79.64724v21.61817h-53.63946Z"/><path class="cls-2" d="M287.83309,463.14477v22.10591h-70.87085v-111.50783h26.00778v89.40192h44.86307Z"/><path class="cls-2" d="M327.44684,395.36103v22.59364h42.26088v20.96974h-42.26088v24.7081h53.63946v21.61817h-79.64724v-111.50783h79.64724v21.61817h-53.63946Z"/><path class="cls-2" d="M461.56371,485.25068h-17.87982l-27.14677-90.86512h-.32422v90.86512h-21.94521v-111.50783h40.8005l19.50654,66.80828,20.47919-66.80828h40.8005v111.50783h-26.00778v-90.86512h-.64843l-27.6345,90.86512Z"/><path class="cls-2" d="M555.46469,395.36103v22.59364h42.26088v20.96974h-42.26088v24.7081h53.63946v21.61817h-79.64724v-111.50783h79.64724v21.61817h-53.63946Z"/><path class="cls-2" d="M705.05006,395.84876h-27.95872v89.40192h-26.00778v-89.40192h-28.28293v-22.10591h82.24943v22.10591Z"/><path class="cls-2" d="M744.55014,485.25068h-26.00778v-111.50783h46.9747c9.91538,0,19.99427,.1607,28.60997,5.68929,9.10343,6.01351,14.14147,16.90435,14.14147,27.7952,0,12.67826-7.31601,24.38106-19.34302,28.77067l20.64271,49.25267h-28.93418l-17.06787-44.05112h-19.01599v44.05112Zm0-63.23062h14.30216c5.36507,0,11.21788,.48773,15.9317-2.27515,4.22609-2.60219,6.50124-7.80374,6.50124-12.68108,0-4.38679-2.60219-9.10061-6.34054-11.37858-4.38679-2.76289-11.86631-2.11163-16.74083-2.11163h-13.65373v28.44645Z"/><path class="cls-2" d="M874.40934,438.27316v46.97752h-26.00778v-46.97752l-35.27191-64.53031h30.23387l21.45466,42.4244,21.13326-42.4244h23.40559l-34.94769,64.53031Z"/></g><g><path class="cls-1" d="M754.36672,528.79531h-2.73606v8.7497h-2.54692v-8.7497h-2.76716v-2.16346h8.05014v2.16346Z"/><path class="cls-1" d="M763.09051,537.54501h-1.7489l-2.65833-8.8948h-.03109v8.8948h-2.14791v-10.91316h3.99268l1.90954,6.53702,2.00541-6.53702h3.99268v10.91316h-2.54433v-8.8948h-.06477l-2.70497,8.8948Z"/></g></svg>