<?xml version="1.0" encoding="UTF-8"?><svg id="Layer_1" xmlns="http://www.w3.org/2000/svg" viewBox="0 0 1080 454.13831"><defs><style>.cls-1{fill:#fff;}.cls-2{fill:#15649f;}</style></defs><path class="cls-2" d="M592.2821,60.71857l-65.39225,.21062-22.91659,98.8235h-33.01415l22.92073-98.8235h-66.02411l7.35941-32.58873h164.42223l-7.35527,32.37811Z"/><path class="cls-1" d="M518.39942,173.68983l22.71012-98.61288h98.60875l-7.56593,32.79939h-65.81349l-22.70599,98.61284h-98.61288l7.57006-32.79935h65.80935Z"/><path class="cls-1" d="M664.32323,325.57889c3.18963,10.82578,12.19136,15.83947,23.12978,15.83947,4.67181,0,10.36927-1.02566,14.01542-3.87538,2.96237-2.27859,4.78445-6.26662,4.78445-10.02541,0-7.86341-6.49389-11.05305-13.33164-12.76249l-12.98778-3.18963c-5.24294-1.25293-10.02739-2.50783-14.13004-6.26662-4.10068-3.64614-6.37927-9.00172-6.37927-14.47192,0-15.0391,12.98778-21.53497,26.54668-21.53497,13.10437,0,23.58629,6.49586,27.80356,19.14373l-8.88908,2.39124c-1.70746-8.54521-10.82381-13.78617-19.14175-13.78617-7.40691,0-16.74854,3.87341-16.74854,12.41862,0,8.77446,6.83578,10.71116,14.12806,12.4206l11.73682,2.84775c5.12634,1.14028,10.25465,2.62048,14.24268,6.03936,4.89907,3.98803,7.29228,9.34361,7.29228,15.49561,0,7.06502-3.07699,13.44626-8.77446,17.77618-5.69747,4.32992-13.33164,5.69747-20.39468,5.69747-15.95212,0-26.43601-7.06502-31.67697-22.21874l8.77446-1.93868Z"/><path class="cls-1" d="M725.90635,348.59603v-78.16381h26.20677c6.72313,0,13.44429,.79642,18.79987,5.24096,5.12831,4.32992,7.97606,11.6222,7.97606,18.23071,0,6.03936-2.50586,12.30598-6.83578,16.52127-5.24096,5.12831-11.73682,6.38124-18.79987,6.38124h-17.54891v31.78962h-9.79814Zm26.32139-39.8803c4.66983,0,8.77248-.45453,12.41862-3.98803,2.84972-2.84775,4.32992-6.83578,4.32992-10.82381,0-4.67181-1.70944-9.34361-5.46823-12.30598-3.30425-2.62048-6.61049-2.96237-10.59654-2.96237h-17.20703v30.08018h16.52325Z"/><path class="cls-1" d="M788.68525,310.08328c0-19.48364,9.57088-40.79134,32.13151-40.79134,21.9895,0,32.13151,20.05477,32.13151,39.31115,0,19.14175-9.80012,41.13323-32.01886,41.13323-22.44601,0-32.24415-20.05477-32.24415-39.65303Zm54.00836-.91104c0-6.9504-1.14028-15.04108-4.67181-21.3077-3.5335-6.152-9.57088-10.48192-16.86316-10.48192-17.43429,0-22.21874,18.79987-22.21874,32.81528,0,13.44429,5.46823,31.56235,21.9895,31.56235,16.75052,0,21.76421-19.14373,21.76421-32.58802Z"/><path class="cls-1" d="M908.52992,348.59603l-14.47192-33.84094h-21.64761v33.84094h-9.80012v-78.16381h29.28376c6.38124,0,12.53324,.79642,17.7742,4.78445,5.24096,3.98803,8.31795,10.48389,8.31795,17.0924,0,9.22899-5.46823,17.54694-14.58457,20.05279l15.38297,36.23416h-10.25465Zm-17.77618-41.817c5.24096,0,9.57088-.34189,13.44626-4.32992,2.73312-2.7351,3.98803-6.49389,3.98803-10.25465,0-4.55718-1.70944-8.31795-5.4702-10.82381-3.41888-2.39321-6.72313-2.50783-10.82381-2.50783h-19.48364v27.91621h18.34336Z"/><path class="cls-1" d="M960.78084,348.59603h-9.79814v-69.61859h-22.21874v-8.54521h54.23563v8.54521h-22.21874v69.61859Z"/><path class="cls-1" d="M997.62746,325.57889c3.18963,10.82578,12.19136,15.83947,23.12978,15.83947,4.67181,0,10.36927-1.02566,14.01542-3.87538,2.96237-2.27859,4.78445-6.26662,4.78445-10.02541,0-7.86341-6.49389-11.05305-13.33164-12.76249l-12.98778-3.18963c-5.24294-1.25293-10.02739-2.50783-14.13004-6.26662-4.10068-3.64614-6.37927-9.00172-6.37927-14.47192,0-15.0391,12.98778-21.53497,26.54668-21.53497,13.10437,0,23.58629,6.49586,27.80356,19.14373l-8.88908,2.39124c-1.70746-8.54521-10.82381-13.78617-19.14175-13.78617-7.40691,0-16.74854,3.87341-16.74854,12.41862,0,8.77446,6.83578,10.71116,14.12806,12.4206l11.73682,2.84775c5.12634,1.14028,10.25465,2.62048,14.24268,6.03936,4.89907,3.98803,7.29228,9.34361,7.29228,15.49561,0,7.06502-3.07699,13.44626-8.77446,17.77618-5.69747,4.32992-13.33164,5.69747-20.39468,5.69747-15.95212,0-26.43601-7.06502-31.67697-22.21874l8.77446-1.93868Z"/><g><path class="cls-2" d="M75.62076,287.07126h-19.59826v62.6682h-18.23071v-62.6682H17.96626v-15.49561h57.6545v15.49561Z"/><path class="cls-2" d="M103.3018,286.72937v15.8375h29.62367v14.69919h-29.62367v17.31967h37.59973v15.15372h-55.83044v-78.16381h55.83044v15.15372h-37.59973Z"/><path class="cls-2" d="M200.14985,334.24384v15.49561h-49.67844v-78.16381h18.23071v62.6682h31.44773Z"/><path class="cls-2" d="M227.91795,286.72937v15.8375h29.62367v14.69919h-29.62367v17.31967h37.59973v15.15372h-55.83044v-78.16381h55.83044v15.15372h-37.59973Z"/><path class="cls-2" d="M321.93006,349.73945h-12.53324l-19.02911-63.69386h-.22727v63.69386h-15.38297v-78.16381h28.59999l13.67353,46.8307,14.35533-46.8307h28.59999v78.16381h-18.23071v-63.69386h-.45453l-19.371,63.69386Z"/><path class="cls-2" d="M387.75196,286.72937v15.8375h29.62367v14.69919h-29.62367v17.31967h37.59973v15.15372h-55.83044v-78.16381h55.83044v15.15372h-37.59973Z"/><path class="cls-2" d="M492.60704,287.07126h-19.59826v62.6682h-18.23071v-62.6682h-19.82553v-15.49561h57.6545v15.49561Z"/><path class="cls-2" d="M520.29547,349.73945h-18.23071v-78.16381h32.92793c6.9504,0,14.01542,.11265,20.05477,3.98803,6.38124,4.2153,9.91276,11.84947,9.91276,19.48364,0,8.8871-5.12831,17.09043-13.55891,20.16742l14.46995,34.52472h-20.28204l-11.96409-30.87858h-13.32966v30.87858Zm0-44.32286h10.02541c3.76076,0,7.86341,.34189,11.16767-1.59482,2.96237-1.82406,4.55718-5.4702,4.55718-8.88908,0-3.07501-1.82406-6.37927-4.44454-7.97606-3.07501-1.9367-8.31795-1.4802-11.73485-1.4802h-9.57088v19.94015Z"/><path class="cls-2" d="M611.32306,316.80955v32.9299h-18.23071v-32.9299l-24.7246-45.2339h21.19308l15.0391,29.73829,14.81381-29.73829h16.40665l-24.49733,45.2339Z"/></g><g><path class="cls-1" d="M101.51142,424.96852v-23.55056h-7.3928v-4.30226h20.1687v4.30226h-7.38858v23.55056h-5.38733Z"/><path class="cls-1" d="M142.10214,424.96852l-4.34448-11.44174h-7.05503v11.44174h-5.01157v-27.85282h12.0666c3.4663,0,5.55621,.66708,7.26614,2.17013,1.42283,1.29617,2.50789,3.17498,2.50789,6.01641,0,5.21845-3.59296,6.76371-5.01157,7.38858l4.8849,12.2777h-5.30289Zm-11.39952-15.45268h6.26129c2.46567,0,5.34511-.83174,5.34511-4.29804,0-2.08991-1.37639-4.09538-4.92712-4.09538h-6.67927v8.39342Z"/><path class="cls-1" d="M179.98653,415.02983c0,3.04832,0,6.51461-3.9265,8.93807-2.21235,1.33417-4.8849,1.41861-5.76309,1.41861-1.66771,0-5.46755-.33354-7.47302-2.67255-2.08991-2.50789-2.21235-4.84268-2.21235-7.30836v-18.28989h5.134v17.91413c0,1.62971,.2111,3.4663,1.21173,4.50914,.92041,.96263,2.50789,1.46083,3.9265,1.46083,1.58749,0,3.38186-.62486,4.13338-1.70993,.83596-1.16951,.96263-2.92165,.96263-4.26004v-17.91413h4.00672v17.91413Z"/><path class="cls-1" d="M196.06829,417.19996c.2491,1.00485,.75152,2.79921,3.2552,3.59296,1.38061,.4602,2.55011,.54464,3.4663,.54464,4.6358,0,5.55621-2.42345,5.55621-3.6774,0-2.63033-2.17435-3.29742-3.42408-3.63096l-6.22329-1.58749c-4.04894-1.04284-6.01219-3.88428-6.01219-7.43502,0-5.26067,4.26004-8.30898,9.85425-8.30898,2.75699,0,5.47177,.7093,7.6419,2.42345,1.67193,1.33417,2.08569,2.67255,2.33901,3.58874l-4.76246,1.21173c-.33354-.9584-1.16951-3.17498-5.134-3.17498-3.84206,0-4.80468,2.04769-4.80468,3.4663,0,2.17435,2.46567,2.9681,3.88428,3.34386l4.72024,1.16951c2.38123,.62486,7.22392,1.95903,7.22392,7.93322,0,5.50977-4.72024,8.72696-11.06597,8.72696-3.33964,0-6.26551-.79374-8.5623-2.63033-1.87881-1.50305-2.38123-3.2172-2.79499-4.50914l4.84268-1.04707Z"/><path class="cls-1" d="M230.65104,424.96852v-23.55056h-7.3928v-4.30226h20.1687v4.30226h-7.38858v23.55056h-5.38733Z"/><path class="cls-1" d="M254.83068,424.96852v-27.85282h17.91413v4.13338h-12.90256v7.55746h10.35667v4.05316h-10.35667v7.80656h13.07145v4.30226h-18.08301Z"/><path class="cls-1" d="M285.48694,397.1157h10.27223c1.58749,0,5.22267,.04222,8.60452,3.4663,2.71477,2.75699,3.96872,6.55683,3.96872,10.44111,0,5.88553-2.71477,9.39405-4.6358,11.10397-1.16951,1.04707-4.30226,2.84143-9.06473,2.84143h-9.14495v-27.85282Zm5.13823,23.76166h4.21782c4.34026,0,8.05988-3.34386,8.05988-10.06535,0-5.09601-2.71477-9.72759-7.47724-9.72759h-4.80046v19.79294Z"/><path class="cls-1" d="M324.28751,424.96852h-5.05379v-5.34511h5.05379v5.34511Z"/><path class="cls-1" d="M358.78583,424.96852v-27.85282h17.91413v4.13338h-12.90256v7.55746h10.35667v4.05316h-10.35667v7.80656h13.07145v4.30226h-18.08301Z"/><path class="cls-1" d="M389.56874,424.96852v-27.85282h17.58059v4.30226h-12.44236v7.6419h9.81203v4.1756h-9.81203v11.73306h-5.13823Z"/><path class="cls-1" d="M419.13993,424.96852v-27.85282h17.58059v4.30226h-12.44236v7.6419h9.81203v4.1756h-9.81203v11.73306h-5.13823Z"/><path class="cls-1" d="M448.7069,424.96852v-27.85282h5.01157v27.85282h-5.01157Z"/><path class="cls-1" d="M488.46588,415.82357c-1.08507,7.35058-6.13885,9.56293-10.56355,9.56293-9.35605,0-11.15042-9.56293-11.15042-14.36339,0-7.22814,3.33964-14.32539,11.31508-14.32539,5.93197,0,9.39827,3.75762,10.39889,9.85425l-4.67802,.50242c-.4982-2.21235-1.46083-6.30773-5.67865-6.30773-5.59421,0-5.92775,7.6419-5.92775,10.14979,0,7.97544,3.17075,10.27223,6.09663,10.27223,2.63033,0,5.09178-2.08991,5.50977-5.88975l4.67802,.54464Z"/><path class="cls-1" d="M500.7478,424.96852v-27.85282h5.01157v27.85282h-5.01157Z"/><path class="cls-1" d="M520.25364,424.96852v-27.85282h17.91413v4.13338h-12.90256v7.55746h10.35667v4.05316h-10.35667v7.80656h13.07145v4.30226h-18.08301Z"/><path class="cls-1" d="M572.08344,424.96852h-4.59358l-10.90132-17.78747c-.29132-.4602-1.29195-2.59233-1.54105-3.09054v20.878h-4.01094v-27.85282h5.55199l9.77403,16.41108c.08444,.20688,.75152,1.41861,1.70993,3.2552v-19.66628h4.01094v27.85282Z"/><path class="cls-1" d="M590.87997,424.96852v-23.55056h-7.3928v-4.30226h20.1687v4.30226h-7.38858v23.55056h-5.38733Z"/><path class="cls-1" d="M617.60973,424.96852h-5.05379v-5.34511h5.05379v5.34511Z"/><path class="cls-1" d="M668.51912,424.96852l-4.34448-11.44174h-7.05503v11.44174h-5.01157v-27.85282h12.0666c3.4663,0,5.55621,.66708,7.26614,2.17013,1.42283,1.29617,2.50789,3.17498,2.50789,6.01641,0,5.21845-3.59296,6.76371-5.01157,7.38858l4.8849,12.2777h-5.30289Zm-11.39952-15.45268h6.26129c2.46567,0,5.34511-.83174,5.34511-4.29804,0-2.08991-1.37639-4.09538-4.92712-4.09538h-6.67927v8.39342Z"/><path class="cls-1" d="M687.31566,424.96852v-27.85282h17.91413v4.13338h-12.90256v7.55746h10.35667v4.05316h-10.35667v7.80656h13.07145v4.30226h-18.08301Z"/><path class="cls-1" d="M720.06182,417.19996c.2491,1.00485,.75152,2.79921,3.2552,3.59296,1.38061,.4602,2.55011,.54464,3.4663,.54464,4.6358,0,5.55621-2.42345,5.55621-3.6774,0-2.63033-2.17435-3.29742-3.42408-3.63096l-6.22329-1.58749c-4.04894-1.04284-6.01219-3.88428-6.01219-7.43502,0-5.26067,4.26004-8.30898,9.85425-8.30898,2.75699,0,5.47177,.7093,7.6419,2.42345,1.67193,1.33417,2.08569,2.67255,2.33901,3.58874l-4.76246,1.21173c-.33354-.9584-1.16951-3.17498-5.134-3.17498-3.84206,0-4.80468,2.04769-4.80468,3.4663,0,2.17435,2.46567,2.9681,3.88428,3.34386l4.72024,1.16951c2.38123,.62486,7.22392,1.95903,7.22392,7.93322,0,5.50977-4.72024,8.72696-11.06597,8.72696-3.33964,0-6.26551-.79374-8.5623-2.63033-1.87881-1.50305-2.38123-3.2172-2.79499-4.50914l4.84268-1.04707Z"/><path class="cls-1" d="M750.3001,424.96852v-27.85282h11.39952c2.38123,0,4.01094,.2491,5.84753,1.37639,2.67255,1.67193,3.75762,4.30226,3.75762,6.89037,0,5.47177-4.26004,8.5623-9.01828,8.5623h-6.97482v11.02375h-5.01157Zm5.01157-15.32602h5.96997c3.63518,0,4.76246-2.21235,4.76246-4.13338,0-1.12729-.41798-2.00547-.75152-2.50367-.75152-1.21173-2.21235-1.71415-4.47114-1.71415h-5.50977v8.3512Z"/><path class="cls-1" d="M793.94335,425.3865c-8.76918,0-11.73306-8.14432-11.73306-14.44783,0-7.51946,4.26004-14.24095,11.94416-14.24095,7.84878,0,11.73306,6.84815,11.73306,14.32539,0,8.51586-4.6358,14.36339-11.94416,14.36339Zm5.13823-21.59153c-1.42283-2.87943-3.88428-3.04832-5.01157-3.04832-5.26067,0-6.43017,5.38733-6.43017,10.35667,0,3.30164,.54042,10.23423,6.34573,10.23423,2.50367,0,4.3867-1.54527,5.21845-3.2172,.6713-1.33839,1.25395-3.17498,1.25395-7.13947,0-1.12729-.08444-4.55136-1.37639-7.18592Z"/><path class="cls-1" d="M839.92562,424.96852h-4.59358l-10.90132-17.78747c-.29132-.4602-1.29195-2.59233-1.54105-3.09054v20.878h-4.01094v-27.85282h5.55199l9.77403,16.41108c.08444,.20688,.75152,1.41861,1.70993,3.2552v-19.66628h4.01094v27.85282Z"/><path class="cls-1" d="M856.34515,417.19996c.2491,1.00485,.75152,2.79921,3.2552,3.59296,1.38061,.4602,2.55011,.54464,3.4663,.54464,4.6358,0,5.55621-2.42345,5.55621-3.6774,0-2.63033-2.17435-3.29742-3.42408-3.63096l-6.22329-1.58749c-4.04894-1.04284-6.01219-3.88428-6.01219-7.43502,0-5.26067,4.26004-8.30898,9.85425-8.30898,2.75699,0,5.47177,.7093,7.6419,2.42345,1.67193,1.33417,2.08569,2.67255,2.33901,3.58874l-4.76246,1.21173c-.33354-.9584-1.16951-3.17498-5.134-3.17498-3.84206,0-4.80468,2.04769-4.80468,3.4663,0,2.17435,2.46567,2.9681,3.88428,3.34386l4.72024,1.16951c2.38123,.62486,7.22392,1.95903,7.22392,7.93322,0,5.50977-4.72024,8.72696-11.06597,8.72696-3.33964,0-6.26551-.79374-8.5623-2.63033-1.87881-1.50305-2.38123-3.2172-2.79499-4.50914l4.84268-1.04707Z"/><path class="cls-1" d="M886.58342,424.96852v-27.85282h5.01157v27.85282h-5.01157Z"/><path class="cls-1" d="M911.72147,424.96852l-8.6003-27.85282h5.30289l6.38795,21.33821,6.51461-21.33821h4.1756l-8.68474,27.85282h-5.09601Z"/><path class="cls-1" d="M936.99462,424.96852v-27.85282h17.91413v4.13338h-12.90256v7.55746h10.35667v4.05316h-10.35667v7.80656h13.07145v4.30226h-18.08301Z"/><path class="cls-1" d="M972.40911,424.96852h-5.05379v-5.34511h5.05379v5.34511Z"/></g><g><path class="cls-1" d="M1052.93192,271.69395h-1.75531v5.61335h-1.63397v-5.61335h-1.77526v-1.38796h5.16455v1.38796Z"/><path class="cls-1" d="M1058.52865,277.3073h-1.12201l-1.70545-5.70644h-.01995v5.70644h-1.37799v-7.00131h2.5615l1.22506,4.19381,1.28657-4.19381h2.5615v7.00131h-1.63231v-5.70644h-.04156l-1.73537,5.70644Z"/></g></svg>